<svg width="280" height="52" viewBox="10 10 252 42" fill="none" xmlns="http://www.w3.org/2000/svg"><mask id="icon_rating-a" maskUnits="userSpaceOnUse" x="220" y="10" width="43" height="41"><path d="M239.772 11.967c.771-1.324 2.685-1.324 3.456 0l5.426 9.315c.282.485.756.83 1.304.948l10.536 2.281c1.498.325 2.089 2.145 1.068 3.288l-7.182 8.038a2.003 2.003 0 00-.499 1.534l1.086 10.725c.154 1.525-1.394 2.65-2.796 2.031l-9.865-4.347a1.998 1.998 0 00-1.612 0l-9.865 4.347c-1.402.618-2.95-.506-2.796-2.031l1.086-10.725a2.003 2.003 0 00-.499-1.534l-7.182-8.038c-1.021-1.143-.43-2.963 1.068-3.288l10.536-2.281a1.999 1.999 0 001.304-.948l5.426-9.315z" fill="#D6DEE6"/></mask><g mask="url(#icon_rating-a)"><path d="M239.772 11.967c.771-1.324 2.685-1.324 3.456 0l5.426 9.315c.282.485.756.83 1.304.948l10.536 2.281c1.498.325 2.089 2.145 1.068 3.288l-7.182 8.038a2.003 2.003 0 00-.499 1.534l1.086 10.725c.154 1.525-1.394 2.65-2.796 2.031l-9.865-4.347a1.998 1.998 0 00-1.612 0l-9.865 4.347c-1.402.618-2.95-.506-2.796-2.031l1.086-10.725a2.003 2.003 0 00-.499-1.534l-7.182-8.038c-1.021-1.143-.43-2.963 1.068-3.288l10.536-2.281a1.999 1.999 0 001.304-.948l5.426-9.315z" fill="#D6DEE6"/><path fill="#FFBD04" d="M219 4h29v58h-29z"/></g><path d="M29.772 11.967c.771-1.324 2.685-1.324 3.456 0l5.425 9.315a2 2 0 001.306.948l10.535 2.281c1.498.325 2.09 2.145 1.068 3.288l-7.182 8.038a2 2 0 00-.499 1.534l1.086 10.725c.154 1.525-1.394 2.65-2.796 2.031l-9.864-4.347a2 2 0 00-1.614 0l-9.864 4.347c-1.402.618-2.95-.506-2.796-2.031l1.086-10.725a2 2 0 00-.499-1.534l-7.182-8.038c-1.021-1.143-.43-2.963 1.068-3.288l10.535-2.281a2 2 0 001.305-.948l5.426-9.315zM81.772 11.967c.771-1.324 2.685-1.324 3.456 0l5.425 9.315a2 2 0 001.305.948l10.536 2.281c1.498.325 2.089 2.145 1.068 3.288l-7.182 8.038a2 2 0 00-.499 1.534l1.086 10.725c.154 1.525-1.394 2.65-2.796 2.031l-9.865-4.347a2 2 0 00-1.612 0l-9.865 4.347c-1.402.618-2.95-.506-2.796-2.031l1.086-10.725a2 2 0 00-.499-1.534l-7.182-8.038c-1.021-1.143-.43-2.963 1.068-3.288l10.535-2.281a2 2 0 001.306-.948l5.425-9.315zM134.262 12.048c.768-1.346 2.708-1.346 3.476 0l5.258 9.225a2 2 0 001.306.962l10.277 2.274c1.484.328 2.074 2.126 1.074 3.27l-7.052 8.063a2.001 2.001 0 00-.485 1.514l1.062 10.716c.152 1.53-1.409 2.652-2.811 2.02l-9.546-4.297a2 2 0 00-1.642 0l-9.546 4.298c-1.402.631-2.963-.49-2.811-2.021l1.062-10.716a2.001 2.001 0 00-.485-1.514l-7.052-8.064c-1-1.143-.41-2.94 1.074-3.269l10.277-2.274a2 2 0 001.306-.962l5.258-9.225zM186.772 11.967c.771-1.324 2.685-1.324 3.456 0l5.426 9.315c.282.485.756.83 1.304.948l10.536 2.281c1.498.325 2.089 2.145 1.068 3.288l-7.182 8.038a2.003 2.003 0 00-.499 1.534l1.086 10.725c.154 1.525-1.394 2.65-2.796 2.031l-9.865-4.347a1.998 1.998 0 00-1.612 0l-9.865 4.347c-1.402.618-2.95-.506-2.796-2.031l1.086-10.725a2.003 2.003 0 00-.499-1.534l-7.182-8.038c-1.021-1.143-.43-2.963 1.068-3.288l10.536-2.281a1.999 1.999 0 001.304-.948l5.426-9.315z" fill="#FFBD04"/></svg>